<svg xmlns="http://www.w3.org/2000/svg" viewBox="0 0 500 500"><g id="freepik--Floor--inject-64"><polygon points="34.95 290.84 88.71 290.6 142.48 290.51 250 290.34 357.52 290.51 411.29 290.6 465.05 290.84 411.29 291.09 357.52 291.18 250 291.34 142.48 291.17 88.71 291.09 34.95 290.84" style="fill:#263238"></polygon></g><g id="freepik--trees-2--inject-64"><path d="M214.17,249.32s11.24,24.95-7.1,25-6.48-25.8-6.48-25.8-4.25-1.86.66-15.79,7.11-13.93,9.15-13.93c2.59,0,5,6,3.25,15.28C213.65,234.05,220.11,245.58,214.17,249.32Z" style="fill:#37474f"></path><polygon points="205.46 290.84 207.19 253.25 209 290.84 205.46 290.84" style="fill:#263238"></polygon><polygon points="206.49 269.01 213.14 261.22 207.92 270.04 206.49 269.01" style="fill:#263238"></polygon><path d="M317.41,252s-5.23-2.07-9.37,5.15c-4.25,7.41,1.09,12.29,5.32,9.38,0,0,3.32,7,10,5.3s7.71-7,7.71-7,5.9.4,6.06-4-4.16-8.3-4.16-8.3-.26-10.95-7.4-10.86S317.41,252,317.41,252Z" style="fill:#455a64"></path><polygon points="322.31 290.83 323.76 258.23 325.29 290.82 322.31 290.83" style="fill:#263238"></polygon><polygon points="323.33 270.48 318.74 261.34 324.09 269.05 323.33 270.48" style="fill:#263238"></polygon><path d="M254.29,252s-5.23-2.07-9.37,5.15c-4.25,7.41,1.09,12.29,5.32,9.38,0,0,3.33,7,10,5.3s7.71-7,7.71-7,5.89.4,6.05-4-4.16-8.3-4.16-8.3-.26-10.95-7.39-10.86S254.29,252,254.29,252Z" style="fill:#455a64"></path><polygon points="259.19 290.83 260.65 258.23 262.18 290.82 259.19 290.83" style="fill:#263238"></polygon><polygon points="260.22 270.48 255.63 261.34 260.97 269.05 260.22 270.48" style="fill:#263238"></polygon><path d="M453.8,249.16s11.24,24.94-7.1,25-6.48-25.8-6.48-25.8-4.25-1.86.66-15.79S448,218.6,450,218.6c2.58,0,5,6,3.24,15.28C453.28,233.88,459.74,245.42,453.8,249.16Z" style="fill:#37474f"></path><polygon points="445.09 290.68 446.82 253.08 448.63 290.67 445.09 290.68" style="fill:#263238"></polygon><polygon points="446.12 268.84 452.77 261.05 447.56 269.87 446.12 268.84" style="fill:#263238"></polygon><path d="M416.1,249.16s11.23,24.94-7.1,25-6.48-25.8-6.48-25.8-4.25-1.86.66-15.79,7.11-13.93,9.15-13.93c2.59,0,5,6,3.25,15.28C415.58,233.88,422,245.42,416.1,249.16Z" style="fill:#37474f"></path><polygon points="407.39 290.68 409.12 253.08 410.92 290.67 407.39 290.68" style="fill:#263238"></polygon><polygon points="408.42 268.84 415.07 261.05 409.85 269.87 408.42 268.84" style="fill:#263238"></polygon><path d="M270.09,254.46s-9.79,21.87,6.27,21.85S282,253.7,282,253.7s3.72-1.64-.61-13.83-6.25-12.19-8-12.19c-2.27,0-4.37,5.29-2.81,13.39C270.53,241.07,264.89,251.19,270.09,254.46Z" style="fill:#37474f"></path><polygon points="277.8 290.81 276.22 257.88 274.71 290.81 277.8 290.81" style="fill:#263238"></polygon><polygon points="276.86 271.68 271.02 264.87 275.61 272.58 276.86 271.68" style="fill:#263238"></polygon><path d="M359.42,254.46s-9.79,21.87,6.27,21.85,5.63-22.61,5.63-22.61,3.72-1.64-.61-13.83-6.25-12.19-8-12.19c-2.27,0-4.37,5.29-2.82,13.39C359.85,241.07,354.22,251.19,359.42,254.46Z" style="fill:#37474f"></path><polygon points="367.13 290.81 365.55 257.88 364.04 290.81 367.13 290.81" style="fill:#263238"></polygon><polygon points="366.19 271.68 360.35 264.87 364.94 272.58 366.19 271.68" style="fill:#263238"></polygon><path d="M412.26,251.87S407,249.8,402.89,257c-4.25,7.41,1.09,12.28,5.32,9.37,0,0,3.33,7,10,5.3s7.71-7,7.71-7,5.89.41,6.05-4-4.16-8.29-4.16-8.29-.26-11-7.39-10.87S412.26,251.87,412.26,251.87Z" style="fill:#455a64"></path><polygon points="417.16 290.69 418.62 258.09 420.15 290.69 417.16 290.69" style="fill:#263238"></polygon><polygon points="418.17 270.31 413.6 261.2 419.07 268.9 418.17 270.31" style="fill:#263238"></polygon></g><g id="freepik--tree-1--inject-64"><path d="M362.34,144.32c4.08,3.28,7.21,8.41,5.06,13.93-2.51,6.41-10,8.83-15.86,9.64-6.35.88-14.38.2-18.78-5.47-2.83-3.62-3.26-9.31-.52-12.92-10.69.88-23.82.36-29.51-11a17.08,17.08,0,0,1-.82-14c1.92-4.62,6.1-7.42,10.32-9.32a67.81,67.81,0,0,1,33.1-5.49,58.91,58.91,0,0,1,16.2,3.37c4,1.55,8.13,4,10.29,8.11,2.29,4.38,1.78,9.67-.41,14C369.38,139.18,366,142.05,362.34,144.32Z" style="fill:#455a64"></path><path d="M464.18,131.67c-.06,1.4-1.93,2.62-2.91,1.28-9.57-13.16-19.64-26.52-32.85-35.72-24.23-16.88-54.81-15.4-82.1-10-15.48,3-30.74,7.26-46.25,10.12a184.67,184.67,0,0,1-22.93,2.88c-7.25.41-15.2-.19-21.94,3.07a1.27,1.27,0,0,1-1.7-1.54.75.75,0,0,1,0-.52,43.75,43.75,0,0,1,8.11-16.56c16-20.22,42.34-23.82,65.73-23.81,7-13.67,21.88-20.33,35.43-23.9,14.35-3.8,29.72-4.26,44,.18a63.82,63.82,0,0,1,31.37,21.72,61.61,61.61,0,0,1,9.27,16.76,126.91,126.91,0,0,1,3.46,13.62c.39,2,7.57,3.78,12.72,18.21C466.26,115,464.53,123.64,464.18,131.67Z" style="fill:#455a64"></path><path d="M460,144.25c-6.48,10.22-19.57,15.9-32.56,15.56-4,7.57-12.83,11.63-21.55,13.94a80.57,80.57,0,0,1-30.78,2c-8.44-1.07-18.69-3.46-22.35-11.15a10,10,0,0,1,.3-9.93c2.32-3.49,6.8-5.32,10.79-6.93a95.7,95.7,0,0,1,10.62-3.52,42.89,42.89,0,0,1-20.12-9.55,130,130,0,0,1-49.39.77,132.35,132.35,0,0,1-21.45-5.61,78.52,78.52,0,0,1-17.69-8.32c-4.7-3.14-8.85-7.08-10.94-12a17.59,17.59,0,0,1,1.34-15.7c6.6-11.48,22-15.75,35.32-17.72,15.25-2.25,30.71-1.37,45.81,1.31,3.5-10.35,16.52-16.08,27-19.83a108.34,108.34,0,0,1,36.25-6.24c11.71,0,24,1.63,34.72,6C445.62,61.4,453.25,69,454,79.35c.67,9.41-4.5,18.13-12.1,24.37A30.5,30.5,0,0,1,457,112.05C465.75,121,466.5,134,460,144.25Z" style="fill:#37474f"></path><path d="M385.74,167.51h0l.06,0h0a.21.21,0,0,0,.13,0c4.65-2.65,2.61-10.1.9-14.12-.14-.34-3.6,5.13-3.76,8A8.23,8.23,0,0,0,385.74,167.51Z" style="fill:#455a64"></path><path d="M372.24,164.82s6.83-3.08,9.86,1.13a4.78,4.78,0,0,1-4.27,2.18C374.78,168.08,372.24,164.82,372.24,164.82Z" style="fill:#455a64"></path><path d="M431.59,144.55s-7.27-1.58-9.46,3.19a4.68,4.68,0,0,0,4.59,1.23C429.71,148.28,431.59,144.55,431.59,144.55Z" style="fill:#455a64"></path><path d="M261.85,95.52s.48,7.9,5.36,8.91a5.45,5.45,0,0,0-.09-5.05C265.72,96.48,261.85,95.52,261.85,95.52Z" style="fill:#455a64"></path><path d="M272.14,113.53a9,9,0,0,0-4.29-5.8,20,20,0,0,0-7.46-2S264,116,272.14,113.53Z" style="fill:#455a64"></path><path d="M379.23,161.38s2.08-3-4-7.18C375.28,154.2,375.21,159.84,379.23,161.38Z" style="fill:#455a64"></path><path d="M422.1,144.6s-1.89-3.16,4.38-6.89C426.48,137.71,426.21,143.34,422.1,144.6Z" style="fill:#455a64"></path><path d="M323.68,107.66s7.26-1.57,9.45,3.19a4.63,4.63,0,0,1-4.58,1.23C325.56,111.4,323.68,107.66,323.68,107.66Z" style="fill:#455a64"></path><path d="M333.16,107.71s1.9-3.15-4.37-6.89C328.79,100.82,329.06,106.46,333.16,107.71Z" style="fill:#455a64"></path><path d="M273.5,109.84s3.17-1.61-.3-8.32C273.2,101.52,270.64,106.45,273.5,109.84Z" style="fill:#455a64"></path><path d="M305.55,119.88a15.63,15.63,0,0,0,3,1.25h0c6.32,2.33,21.13,7.25,29.29,10.31h0a33.22,33.22,0,0,1,5.56,2.39c2.18,1.83,11.68,15.45,13.08,20.94a38,38,0,0,1,.23,5.23h0c.09,9-.3,28.46-.85,50.46h0c-.14,5.63-.3,11.43-.46,17.26h0c-.24,8.86-.5,17.82-.75,26.41v.06l-.06,2.15v.07c-.26,8.66-.51,16.9-.74,24.24h0c-.56,18.15-1,30.83-1,30.83h52.78s-1.21-10.31-3-25.67v0c-.69-5.88-1.47-12.5-2.29-19.58h0c-.86-7.31-1.76-15.1-2.69-23h0c-.42-3.6-.84-7.24-1.26-10.88-.58-5-1.17-10.06-1.74-15-.3-2.57-.59-5.13-.89-7.65h0q-.34-3.09-.71-6.12c-.37-3.26-.74-6.46-1.09-9.55l-.06-.5c-.17-1.45-.33-2.87-.49-4.26a.28.28,0,0,1,0-.08v0c-2.38-20.64-4.08-35.79-4.08-36.62,0-2.73,11.21-33.89,11.21-33.89l-2.6-1.67S384.4,142.47,379.24,145a8.41,8.41,0,0,1-2,.67h0c-4.52.87-9-2.43-11.22-6.79-1.8-3.47-4.64-11.46-6.63-16.5a21.76,21.76,0,0,0-2-4.3c-.44-.48-2.42-.34-2.49.33-.4,3.9,6.69,20.11,4.83,22.1-.56.6-3.18-1.73-6.62-5.32h0c-5.13-5.38-12.08-13.56-16.66-19l0,0c-2.55-3-4.36-5.12-4.71-5.42-1.4-1.16-2.57,1.4-2,2s12.45,14.29,12,16.12-34.26-11.8-35-11.13S305.08,119,305.55,119.88Z" style="fill:#FFFFFF"></path><path d="M391.41,189.09v0c0,.63.73,9.41,1.35,15.72.5,5.11,1,8.59,1,4.8h0c.05-3.19,2.7-10.41,6-18.39,5.7-13.7,13.38-29.64,13.28-31.31-.17-2.65-2-2.08-2-2.08-.83,0-3.31,5.82-7.94,15.71S392.72,193.17,391.41,189.09Z" style="fill:#FFFFFF"></path><g style="opacity:0.6000000000000001"><path d="M305.55,119.88a15.63,15.63,0,0,0,3,1.25h0c6.32,2.33,21.13,7.25,29.29,10.31h0a33.22,33.22,0,0,1,5.56,2.39c2.18,1.83,11.68,15.45,13.08,20.94a38,38,0,0,1,.23,5.23h0c.09,9-.3,28.46-.85,50.46h0c-.14,5.63-.3,11.43-.46,17.26h0c-.24,8.86-.5,17.82-.75,26.41v.06l-.06,2.15v.07c-.26,8.66-.51,16.9-.74,24.24h0c-.56,18.15-1,30.83-1,30.83h52.78s-1.21-10.31-3-25.67v0c-.69-5.88-1.47-12.5-2.29-19.58h0c-.86-7.31-1.76-15.1-2.69-23h0c-.42-3.6-.84-7.24-1.26-10.88-.58-5-1.17-10.06-1.74-15-.3-2.57-.59-5.13-.89-7.65h0q-.34-3.09-.71-6.12c-.37-3.26-.74-6.46-1.09-9.55l-.06-.5c-.17-1.45-.33-2.87-.49-4.26a.28.28,0,0,1,0-.08v0c-2.38-20.64-4.08-35.79-4.08-36.62,0-2.73,11.21-33.89,11.21-33.89l-2.6-1.67S384.4,142.47,379.24,145a8.41,8.41,0,0,1-2,.67h0c-4.52.87-9-2.43-11.22-6.79-1.8-3.47-4.64-11.46-6.63-16.5a21.76,21.76,0,0,0-2-4.3c-.44-.48-2.42-.34-2.49.33-.4,3.9,6.69,20.11,4.83,22.1-.56.6-3.18-1.73-6.62-5.32h0c-5.13-5.38-12.08-13.56-16.66-19l0,0c-2.55-3-4.36-5.12-4.71-5.42-1.4-1.16-2.57,1.4-2,2s12.45,14.29,12,16.12-34.26-11.8-35-11.13S305.08,119,305.55,119.88Z"></path><path d="M391.41,189.09v0c0,.63.73,9.41,1.35,15.72.5,5.11,1,8.59,1,4.8h0c.05-3.19,2.7-10.41,6-18.39,5.7-13.7,13.38-29.64,13.28-31.31-.17-2.65-2-2.08-2-2.08-.83,0-3.31,5.82-7.94,15.71S392.72,193.17,391.41,189.09Z"></path></g><g style="opacity:0.1"><path d="M379.52,218.9a123.11,123.11,0,0,0,2.64,21c2.52,12.53,6,24.82,8.29,37.42,1.19,6.61,2.1,13.26,2.63,20,.27,3.4.47,6.82.61,10.24.06,1.33.08,2.67.13,4h3.69c-.05-2.11-.2-4.23-.31-6.29q-.27-5.69-.8-11.37c-1.22-12.88-4.16-25.14-7.63-37.52s-6.62-24.65-7.94-37.43C380.74,218,379.49,218,379.52,218.9Z"></path><path d="M381.49,168.08c1.47,6,2.7,12,4.05,18.06s2.8,12,3.67,18.17c1.69,12,1.12,24,.26,36.06a.47.47,0,1,1-.94,0c-.16-12,0-24.07-1.51-36-1.48-12.15-4.32-24-6.29-36.11C380.65,167.78,381.36,167.55,381.49,168.08Z"></path><path d="M379.3,200.37a111.44,111.44,0,0,0,.41-14.5.3.3,0,0,1,.59-.09c1.09,4.43.55,9.35.32,13.86-.25,4.84,0,9.64-.12,14.47a.43.43,0,0,1-.84.12C378.11,209.89,378.86,204.86,379.3,200.37Z"></path><path d="M383.81,205.1a40,40,0,0,1,1.19,8.6,63.74,63.74,0,0,1-.06,9.27.25.25,0,1,1-.5,0c-.27-3-.51-5.93-.77-8.9s-.74-5.92-.71-8.85A.43.43,0,0,1,383.81,205.1Z"></path><path d="M358.54,303.23c.8-6.94,1.22-14,1.82-20.92s1.05-13.8,1.26-20.72.32-13.84.18-20.76-.88-14.07-.82-21.07a.66.66,0,0,1,1.29-.19c1.56,6.6,2,13.74,2.42,20.5.48,7.16.68,14.35.48,21.52s-.63,14.1-1.46,21.09a192.64,192.64,0,0,1-3.89,20.73C359.65,304.15,358.45,304,358.54,303.23Z"></path><path d="M367.13,311.51h3.25c.32-1.86.52-3.72.7-5.52a132.71,132.71,0,0,0,.39-14.1c-.08-10.16-.93-20.23-1.37-30.37a.55.55,0,1,0-1.09,0c-.23,9.9-.84,19.73-.77,29.65,0,4.7,0,9.4-.35,14.1C367.74,307.38,367.45,309.44,367.13,311.51Z"></path><path d="M368.29,240.42a.59.59,0,1,1,1.18,0,75.13,75.13,0,0,1-.09,14.92.33.33,0,1,1-.66,0C368.34,250.4,368.28,245.38,368.29,240.42Z"></path><path d="M376.3,237a.73.73,0,0,1,1.42,0c.88,5.61,1,11.39,1.6,17s1.37,11.55,2.34,17.28c1.92,11.41,4.43,22.73,7.34,33.9.1.4-.46.68-.64.29A136.46,136.46,0,0,1,378.12,272a153,153,0,0,1-2.05-17.21C375.75,249,375.39,242.8,376.3,237Z"></path><path d="M375.34,292.33c0,2.82,0,5.65.08,8.46s.32,5.9.52,8.85c0,.59.06,1.22.08,1.87h3.17c0-.79,0-1.55,0-2.25,0-2.83-.05-5.65-.33-8.47s-.68-5.62-1.09-8.42a57.2,57.2,0,0,0-1.54-8.59c-.11-.33-.66-.42-.72,0A60.92,60.92,0,0,0,375.34,292.33Z"></path><path d="M396.16,265c2.08,6.92,4.43,13.73,6.43,20.68l.05.14c-.69-5.88-1.47-12.5-2.29-19.58h0l-.18-.57a61,61,0,0,1-2.63-10.92,51.4,51.4,0,0,1,.08-11.16c0-.13,0-.26,0-.39h0c-.42-3.6-.84-7.24-1.26-10.88a84.37,84.37,0,0,0-2.27,11.28A51.17,51.17,0,0,0,396.16,265Z"></path><path d="M355.84,210.47c.22-.78.41-1.57.6-2.32a79.55,79.55,0,0,0,1.62-7.81,104,104,0,0,0,1.2-15.37,115.06,115.06,0,0,0-.91-15.41c-.33-2.65-.79-5.27-1.34-7.88-.11-.53-.21-1.09-.32-1.67C356.78,169.05,356.39,188.47,355.84,210.47Z"></path><path d="M371.74,174.24c.07-.46.71-.31.73.11.34,5.37.44,10.79.7,16.17s.62,10.53.81,15.79.25,10.53,0,15.78a111.06,111.06,0,0,1-2,15.44c-.07.42-.69.32-.68-.1.13-10.61-.51-21.26-.58-31.89C370.68,195.21,370.3,184.49,371.74,174.24Z"></path><path d="M365,164.13c0-.34.53-.36.51,0a298.8,298.8,0,0,0,.35,30.08c.62,10,2,19.8.82,29.81-.06.45-.7.49-.69,0,.11-5.14-.74-10.21-1.37-15.29-.59-4.82-1-9.66-1.18-14.52A230.77,230.77,0,0,1,365,164.13Z"></path><path d="M353.83,280.67c.45-2.32.88-4.65,1.31-7a148.24,148.24,0,0,0,2.48-16,92.66,92.66,0,0,0-.74-16c-.47-4.65-1-9.28-1.5-13.92-.24,8.86-.5,17.82-.75,26.41v.06c0,.72,0,1.44-.06,2.15v.07C354.31,265.09,354.06,273.33,353.83,280.67Z"></path><path d="M392,193.39c2.26-1.28,3.78-4.18,5.24-6.34s2.89-4.44,4.34-6.66c.1-.16.39-.07.31.14a47.41,47.41,0,0,1-4.14,8.86c-1.28,2-3.05,4.79-5.58,4.66A.36.36,0,0,1,392,193.39Z"></path><path d="M404,173.9c.63-1.15,1.26-2.3,1.86-3.47a.32.32,0,0,1,.59.26,29.61,29.61,0,0,1-1.24,3.69c-.43,1-.88,2.43-1.87,2.92a.42.42,0,0,1-.62-.38C402.65,175.82,403.47,174.82,404,173.9Z"></path><path d="M393,210.83a64.16,64.16,0,0,0,1.68,6.47c-.3-2.57-.59-5.13-.89-7.65h0c.05-3.19,2.7-10.41,6-18.39a46.92,46.92,0,0,0-6.55,11.69l-.19.58a12.17,12.17,0,0,0-.3,1.33A15.29,15.29,0,0,0,393,210.83Z"></path><path d="M385,161a63.63,63.63,0,0,1,3.09,25.6c0,.43-.71.61-.77.11-1.08-8.51-.88-17.14-3-25.52A.34.34,0,1,1,385,161Z"></path><path d="M376.22,157.86a.32.32,0,1,1,.63,0,183.57,183.57,0,0,1-.25,31.63.25.25,0,1,1-.5,0C375.47,179,375.85,168.36,376.22,157.86Z"></path><path d="M386.57,140a.46.46,0,0,1,.78.48c-3.72,7.27-5.12,15.39-7.12,23.29a.48.48,0,0,1-.94-.14C378.83,155.05,382.42,147,386.57,140Z"></path><path d="M359.38,122.35c0,3.17,1.33,6.67,2.22,9.55a58.69,58.69,0,0,0,3.47,9.19c1.23,2.43,3,4.94,5.47,6s4.65-.06,6.69-1.49c-4.52.87-9-2.43-11.22-6.79C364.21,135.38,361.37,127.39,359.38,122.35Z"></path><path d="M362.45,144.16a64.29,64.29,0,0,1,4.16,6.75,32.55,32.55,0,0,1,3.16,7,25.54,25.54,0,0,1,.69,7.75c-.1,2.9-.88,5.44-1.39,8.25a.23.23,0,0,1-.46-.07,75.31,75.31,0,0,0-.2-7.8,34.79,34.79,0,0,0-.81-7.49c-1.21-4.92-3.75-9.31-5.77-13.86C361.66,144.27,362.15,143.76,362.45,144.16Z"></path><path d="M372.21,158.6a23.5,23.5,0,0,1,1-7.25c.11-.26.54-.36.6,0a32.6,32.6,0,0,1-.16,7.25c-.18,2.65-.45,5.3-.66,8a.28.28,0,1,1-.56,0A63.93,63.93,0,0,1,372.21,158.6Z"></path><path d="M378.62,147.4a.3.3,0,0,1,.51.32c-.79,1.66-1.13,3.48-1.87,5.15-.16.38-.75.2-.73-.21A11.68,11.68,0,0,1,378.62,147.4Z"></path><path d="M351.91,138.7a44.94,44.94,0,0,1,8.38,12.86c2.21,5.57,1.87,11.09,1.3,17a.39.39,0,1,1-.77,0c-.39-5.34-.89-10.95-2.52-16-1.58-4.9-4.36-9-7.19-13.13C350.77,138.86,351.52,138.26,351.91,138.7Z"></path><path d="M336.44,116.19c.55.85,1.1,1.67,1.57,2.46,1.51,2.5,3,5,4.66,7.42a27,27,0,0,0,10.43,9.08C348,129.77,341,121.59,336.44,116.19Z"></path><path d="M341.53,130.65a18.89,18.89,0,0,1,4.64,2.72c1.09.85,2.66,1.87,3,3.33a.16.16,0,0,1-.18.2c-1.38-.21-2.72-1.71-3.78-2.59-1.31-1.07-2.68-2.11-3.93-3.27C341.15,130.89,341.32,130.57,341.53,130.65Z"></path><path d="M308.53,121.14c6.32,2.33,21.13,7.25,29.29,10.31a85.86,85.86,0,0,0-15.11-6.38A95.16,95.16,0,0,0,308.53,121.14Z"></path></g></g><g id="freepik--Bench--inject-64"><polygon points="61.51 269.25 58.4 305.27 61.51 305.27 65.4 273.9 75.14 273.9 89.79 311.51 93.93 311.51 79.03 269.25 61.51 269.25" style="fill:#263238"></polygon><polygon points="164.25 269.25 161.15 305.27 164.25 305.27 168.15 273.9 177.88 273.9 192.54 311.51 196.67 311.51 181.78 269.25 164.25 269.25" style="fill:#263238"></polygon><polygon points="60.67 215.73 70.34 263.92 66.67 263.92 57.92 215.73 60.67 215.73" style="fill:#263238"></polygon><polygon points="105.75 215.73 115.42 263.92 111.74 263.92 102.99 215.73 105.75 215.73" style="fill:#263238"></polygon><polygon points="151.48 215.73 161.15 263.92 157.47 263.92 148.72 215.73 151.48 215.73" style="fill:#263238"></polygon><polygon points="166.42 228.17 48.81 228.17 47.09 219.6 164.7 219.6 166.42 228.17" style="fill:#FFFFFF"></polygon><polygon points="166.42 228.17 51.13 228.17 49.41 219.6 164.7 219.6 166.42 228.17" style="opacity:0.2"></polygon><polygon points="168.41 238.1 50.8 238.1 49.09 229.54 166.7 229.54 168.41 238.1" style="fill:#FFFFFF"></polygon><polygon points="168.41 238.1 53.12 238.1 51.41 229.54 166.7 229.54 168.41 238.1" style="opacity:0.2"></polygon><polygon points="170.4 248.03 52.79 248.03 51.07 239.47 168.69 239.47 170.4 248.03" style="fill:#FFFFFF"></polygon><polygon points="170.4 248.03 55.11 248.03 53.4 239.47 168.69 239.47 170.4 248.03" style="opacity:0.2"></polygon><polygon points="172.4 257.96 54.78 257.96 53.07 249.4 170.68 249.4 172.4 257.96" style="fill:#FFFFFF"></polygon><polygon points="172.4 257.96 57.11 257.96 55.39 249.4 170.68 249.4 172.4 257.96" style="opacity:0.2"></polygon><path d="M61.43,223.89a.63.63,0,1,1-.63-.63A.63.63,0,0,1,61.43,223.89Z" style="fill:#263238"></path><path d="M63.4,233.82a.63.63,0,1,1-.62-.63A.62.62,0,0,1,63.4,233.82Z" style="fill:#263238"></path><path d="M65.38,243.75a.63.63,0,1,1-.63-.63A.63.63,0,0,1,65.38,243.75Z" style="fill:#263238"></path><path d="M67.35,253.68a.63.63,0,1,1-.62-.62A.63.63,0,0,1,67.35,253.68Z" style="fill:#263238"></path><path d="M106.41,223.89a.63.63,0,1,1-.62-.63A.62.62,0,0,1,106.41,223.89Z" style="fill:#263238"></path><path d="M108.39,233.82a.63.63,0,1,1-.63-.63A.63.63,0,0,1,108.39,233.82Z" style="fill:#263238"></path><path d="M110.36,243.75a.63.63,0,1,1-.62-.63A.62.62,0,0,1,110.36,243.75Z" style="fill:#263238"></path><path d="M112.34,253.68a.63.63,0,1,1-.63-.62A.63.63,0,0,1,112.34,253.68Z" style="fill:#263238"></path><path d="M152.28,223.89a.63.63,0,1,1-.63-.63A.63.63,0,0,1,152.28,223.89Z" style="fill:#263238"></path><path d="M154.26,233.82a.63.63,0,1,1-.63-.63A.63.63,0,0,1,154.26,233.82Z" style="fill:#263238"></path><path d="M156.23,243.75a.63.63,0,1,1-.63-.63A.63.63,0,0,1,156.23,243.75Z" style="fill:#263238"></path><path d="M158.21,253.68a.63.63,0,1,1-.63-.62A.63.63,0,0,1,158.21,253.68Z" style="fill:#263238"></path><polygon points="197.84 276.87 81.76 276.87 79.6 270.94 195.68 270.94 197.84 276.87" style="fill:#FFFFFF"></polygon><polygon points="197.84 276.87 84.08 276.87 81.92 270.94 195.68 270.94 197.84 276.87" style="opacity:0.2"></polygon><polygon points="195.21 269.25 58.4 269.25 58.4 263.92 192.68 263.92 195.21 269.25" style="fill:#FFFFFF"></polygon><polygon points="195.21 269.25 60.72 269.25 60.72 263.92 192.68 263.92 195.21 269.25" style="opacity:0.2"></polygon></g><g id="freepik--Plants--inject-64"><path d="M316,311.51s1.82-8.48,5.44-9.78,5.84,2.49,5.84,2.49.85-8.09,6-10.52,9,2.54,9,2.54,3.94-10.27,11-10.27,10.61,15,10.61,15,4.16-4.48,8.43-1.95,4.26,12.46,4.26,12.46Z" style="fill:#37474f"></path><path d="M40.4,398.12s1.51-7.07,4.54-8.16S49.82,392,49.82,392s.71-6.76,5-8.79,7.52,2.12,7.52,2.12,3.29-8.58,9.18-8.58,8.86,12.56,8.86,12.56,3.48-3.74,7-1.63S91,398.12,91,398.12Z" style="fill:#37474f"></path><path d="M406.1,346.73s1.09-5.09,3.27-5.87,3.51,1.5,3.51,1.5.51-4.87,3.6-6.33,5.42,1.53,5.42,1.53,2.37-6.18,6.61-6.18,6.37,9,6.37,9,2.51-2.69,5.07-1.17,2.56,7.48,2.56,7.48Z" style="fill:#455a64"></path><path d="M83.49,347.86h53.36s-1.76-7.52-5.3-8.05-5.18,2.95-5.18,2.95.16-10.49-6.45-12.28S107.77,338,107.77,338s-4.15-5.29-9.79-5-7.08,9.07-7.08,9.07S85.76,339.06,83.49,347.86Z" style="fill:#37474f"></path><path d="M372.61,311.51h33.56s-.08-5-3.38-6.33a4.5,4.5,0,0,0-5.26,1.27s-1.34-9.19-7.49-9.19-9.09,7.92-9.09,7.92a4.71,4.71,0,0,0-4.79-1.94C372.74,303.68,372.61,311.51,372.61,311.51Z" style="fill:#455a64"></path><path d="M61.44,347.86h28.1s-.07-4.18-2.83-5.29a3.75,3.75,0,0,0-4.4,1.06s-1.13-7.69-6.28-7.69-7.61,6.63-7.61,6.63a4,4,0,0,0-4-1.63C61.56,341.31,61.44,347.86,61.44,347.86Z" style="fill:#455a64"></path><path d="M385.52,402.52h30.31s-.07-4.51-3.05-5.71A4.05,4.05,0,0,0,408,398s-1.21-8.3-6.77-8.3-8.21,7.16-8.21,7.16a4.25,4.25,0,0,0-4.32-1.76C385.64,395.45,385.52,402.52,385.52,402.52Z" style="fill:#455a64"></path><path d="M135.69,322.42H152s0-2.43-1.64-3.08a2.2,2.2,0,0,0-2.56.62s-.65-4.47-3.64-4.47-4.42,3.85-4.42,3.85a2.29,2.29,0,0,0-2.33-.94C135.76,318.61,135.69,322.42,135.69,322.42Z" style="fill:#455a64"></path></g><g id="freepik--Shadow--inject-64"><ellipse cx="250" cy="446.94" rx="109.2" ry="13.65" style="fill:#ebebeb"></ellipse></g><g id="freepik--Character--inject-64"><path d="M258.09,155.21c3.86,7.16,18.78,32.81,19.82,34s22.66,23.37,26.41,26.44c2.65,2.17-17.69,17.68-19.89,15.66-5.15-4.74-19-19.06-23.95-26.43-4.05-6-12.74-40.43-13.36-49.24S251.75,143.45,258.09,155.21Z" style="fill:#f7a9a0"></path><path d="M283,229.81c1.28,2.48,8.16,13.34,10.75,15.94s10.58,9.52,12.77,7.74,0-4,0-4,3.84,2.39,5.88.4-1.46-5.33-1.46-5.33,4.12,2.16,6,0-2.19-4.9-2.19-4.9,3.68,2.16,4.5-.26c1-2.9-6.25-6.11-8.89-9.19-.6-.7-11.16-15-11.16-15Z" style="fill:#f7a9a0"></path><path d="M315.11,239.94c-5.31-2.38-7.22-4.34-10.4-9.1-.06-.09-.21,0-.15.08,2.68,5,4.72,7.75,10.45,9.28C315.29,240.27,315.36,240.05,315.11,239.94Z" style="fill:#263238"></path><path d="M311.36,244.74c-5.29-3-7.39-5.05-11.08-9.8,0-.07-.17,0-.12.08,3.23,5,5.33,7.71,11,10C311.43,245.08,311.61,244.87,311.36,244.74Z" style="fill:#263238"></path><path d="M306.34,249.24c-4.92-3.22-7.31-5.43-10.3-10.5a.11.11,0,0,0-.2.1c2.55,5.46,5.52,8.24,10.39,10.54C306.56,249.54,306.65,249.44,306.34,249.24Z" style="fill:#263238"></path><path d="M298.69,211.85s6.81,2.6,9.55,4.41,10.46,12.28,8.3,14.07c-2.8,2.32-8.46-2.84-10.89-5.74,0,0-6.47,5.38-11.33,2.55S298.69,211.85,298.69,211.85Z" style="fill:#f7a9a0"></path><path d="M315.56,230.72c-4.08.27-7-3.73-9.61-6.36a.34.34,0,0,0-.55.07c-2.86,2.07-7.5,4.16-11,2.93a.09.09,0,0,0-.07.16c3.59,1.83,8.32.15,11.31-2.32,2.6,2.73,5.74,6.62,9.94,5.56C315.59,230.75,315.58,230.72,315.56,230.72Z" style="fill:#263238"></path><path d="M279.79,229.12l23.44-16.25s-24.68-23.18-25.49-25-17.66-31.52-21.51-37.46-10.58-6.56-9.2,8.36,9.34,37.66,11.32,43.84C259.94,207.6,279.79,229.12,279.79,229.12Z" style="fill:#FFFFFF"></path><path d="M277.74,223.43c.74-.7,8.13-6,9.76-7.08s8.25-5.72,10-6.73a.07.07,0,0,1,.08.12c-1.55,1.32-8.21,6-9.85,7.15s-9.06,6.21-9.95,6.66C277.73,223.58,277.69,223.48,277.74,223.43Z" style="fill:#263238"></path><path d="M293.5,219.62l-13.71,9.5s-19.85-21.52-21.44-26.51c-2-6.18-10-28.91-11.32-43.84-.92-9.92,1.76-13,4.78-12.15Z" style="opacity:0.1"></path><path d="M211.33,443.2c-2.19-.8-51.7-40.19-52.63-42.89-.37-1,37.77-49.38,37.77-49.38l30.39,24.78-24.53,32.41s12.21,23.56,12.92,26.63S213.52,444,211.33,443.2Z" style="fill:#f7a9a0"></path><path d="M207.26,417.41q-.15-.21-.12-.27A2.42,2.42,0,0,1,207.26,417.41Z" style="fill:#FFFFFF"></path><path d="M211.33,443.19c-2.19-.79-51.7-40.18-52.63-42.88-.33-.91,3.83-7,9.46-14.59,7.68,9,37.63,43.72,41,41.43,1.3-.9-.13-5.31-1.15-8,3.31,6.57,6.9,13.94,7.28,15.57C215.94,437.81,213.52,444,211.33,443.19Z" style="fill:#263238"></path><path d="M180.73,371l31.39,25.12s52-61.31,53.87-70.51c2.16-10.47,8.19-92.46,8.05-96.55-.17-5-5.63-26.73-5.63-26.73H229.49S224,309.57,222.91,312.89C221.69,316.46,180.73,371,180.73,371Z" style="fill:#263238"></path><path d="M215.19,388c-5-4.84-24.59-20.38-27-21.66,0,0-.13.07-.09.11,1.77,2.11,18.42,15.78,27,21.71C215.16,388.24,215.27,388.09,215.19,388Z" style="fill:#37474f"></path><path d="M270.33,218.47a11.28,11.28,0,0,0-1.58-.37,9.7,9.7,0,0,1-1.64-.63,12.67,12.67,0,0,1-3-2.12,11.26,11.26,0,0,1-2.3-3.71c-.34-.78-1.93-5-1.95-5s-.16,0-.14.06c.11.58,1.2,4.19,1.52,5.09a11.83,11.83,0,0,0,2.41,4.3,9.42,9.42,0,0,0,3.32,2.24,6.93,6.93,0,0,0,1.78.48,2.9,2.9,0,0,0,1.63-.09C270.46,218.68,270.41,218.5,270.33,218.47Z" style="fill:#37474f"></path><path d="M235.91,204.25l-.82,21.53-.93,21.53-2.07,43.05c-.39,7.17-.78,14.34-1.23,21.52q-.08,1.33-.21,2.73a1.17,1.17,0,0,1-.09.41,2.69,2.69,0,0,1-.17.34,6.8,6.8,0,0,1-.36.6c-.25.39-.51.76-.77,1.13-1,1.48-2.12,2.91-3.21,4.34-2.17,2.87-4.41,5.68-6.64,8.49q-6.72,8.43-13.53,16.78l-13.73,16.61,13.39-16.88c4.46-5.63,8.92-11.26,13.32-16.93q3.31-4.26,6.56-8.54c1.08-1.43,2.16-2.87,3.18-4.33l.74-1.11c.21-.37.52-.74.5-1,.07-.87.14-1.74.19-2.65.42-7.16.78-14.34,1.14-21.51l2.27-43,1.19-21.51Z" style="fill:#37474f"></path><path d="M266.77,319.91c-.29,2.64-.55,4.61-.78,5.71-1.07,5.17-17.93,26.78-32.5,44.73l-10-62.86c1.78-22.31,6-105.15,6-105.15h19.4Z" style="fill:#37474f"></path><path d="M321.37,442c-2,1.12-64.32,12.32-67,11.24-1-.4-12.17-61-12.17-61l38.68-6.48,8.16,39.82s25.75,6.38,28.53,7.87S323.42,440.86,321.37,442Z" style="fill:#f7a9a0"></path><path d="M299.31,428c-.17,0-.26,0-.28-.09Z" style="fill:#FFFFFF"></path><path d="M321.37,442c-2,1.12-64.32,12.32-67,11.24-.9-.35-2.71-7.49-4.71-16.74,11.84.18,57.68.58,58.15-3.43.19-1.57-4.08-3.41-6.74-4.39,7.12,1.85,15,4,16.5,4.81C320.36,435,323.42,440.86,321.37,442Z" style="fill:#263238"></path><path d="M260.66,202.35s-1,16.64-5.61,28.49c0,0-6.63,4.13-7.32,4.78l39.43,177.66-40.43,7.85s-15.89-86.06-17.24-92c-2.17-9.47-19.34-90-20.1-94.59-1.59-9.57,7.24-32.23,7.24-32.23Z" style="fill:#263238"></path><path d="M283,404.4c-11.12,1.66-32.39,6.17-35,7.25-.06,0,0,.14,0,.14,2.84,0,28.74-5.18,35-7.19C283.19,404.56,283.15,404.38,283,404.4Z" style="fill:#37474f"></path><path d="M221.61,218.47c.81-.18,1.67-.12,2.49-.23a18.48,18.48,0,0,0,2.57-.48,19,19,0,0,0,4.6-1.87,9.89,9.89,0,0,0,3.34-3.55c.47-.76,2.62-4.85,2.64-4.88s.26,0,.24.08c-.12.57-1.53,4.13-2,5a9.64,9.64,0,0,1-3.45,4.15,15.3,15.3,0,0,1-5.1,2,16.57,16.57,0,0,1-2.81.32,7.39,7.39,0,0,1-2.61-.25C221.42,218.68,221.49,218.5,221.61,218.47Z" style="fill:#37474f"></path><path d="M256,230.4a67.29,67.29,0,0,0-10.66,4.84.12.12,0,0,0,.09.22c3.59-1.5,7.25-2.94,10.76-4.64A.23.23,0,0,0,256,230.4Z" style="fill:#37474f"></path><path d="M257.37,205.87c0-.13-.23-.15-.23,0a117.53,117.53,0,0,1-.71,11.94c-.18,1.84-1.75,12-4.94,11.24-.53-.13-.8-.66-.88-1.47a12.92,12.92,0,0,1,.45-3.12c.38-2.12.68-4.26.88-6.41a58.37,58.37,0,0,0,0-12,.1.1,0,1,0-.2,0,111.18,111.18,0,0,1-1.13,16.61c-.42,2.65-1.79,6.62,1,7s4.7-6.22,5.06-8A61.56,61.56,0,0,0,257.37,205.87Z" style="fill:#37474f"></path><path d="M251.57,229.3a18.8,18.8,0,0,0-.74,2.11,4.9,4.9,0,0,0-.31,1.73c0,.11.16.12.22.05a6.37,6.37,0,0,0,.76-1.68c.25-.66.51-1.3.74-2A.36.36,0,0,0,251.57,229.3Z" style="fill:#37474f"></path><path d="M220,202.35q-1.66,6.33-3.1,12.71c-.94,4.25-1.85,8.52-2.38,12.84l-.15,1.61c0,.54,0,1.08,0,1.61l.48,3.2,1.22,6.42,2.6,12.82,10.69,51.22L240,356l5.31,25.62,5.24,25.63-5.68-25.54-5.57-25.56L228.36,305c-3.54-17.08-7.11-34.15-10.48-51.27l-2.48-12.85-1.16-6.44-.45-3.27a25.76,25.76,0,0,1,.24-3.3c.61-4.34,1.59-8.59,2.6-12.84S218.77,206.55,220,202.35Z" style="fill:#37474f"></path><path d="M268.41,202.35,266,185.9s4.32-8.5.77-15.94c-1.79-3.77-11.72-21.36-18.23-26-6.11-4.34-12.45.07-15.23,3.93-8,11.09-12.55,18.47-16.68,54.43Z" style="fill:#f7a9a0"></path><path d="M268.66,197a22,22,0,0,0,.06-3.85A74,74,0,0,0,266,185.9s4.32-8.5.77-15.94c-1.79-3.77-11.72-21.36-18.23-26-6.11-4.34-13.71,0-16.3,3.95-8.76,13.47-14.32,24.46-18.45,44.55-.33,1.56.78,4.3.78,4.3Z" style="fill:#FFFFFF"></path><path d="M257.92,184.08a54.28,54.28,0,0,0-8,1.48c-1.3.36-2.57.77-3.84,1.22-.64.22-1.27.43-1.92.62a8.06,8.06,0,0,1-2,.43.05.05,0,0,0,0,.1,13.25,13.25,0,0,0,2-.08,15.46,15.46,0,0,0,1.89-.39c1.32-.35,2.62-.77,3.94-1.14,2.66-.74,5.32-1.47,8-2A.11.11,0,0,0,257.92,184.08Z" style="fill:#263238"></path><path d="M264.65,186.34a60.08,60.08,0,0,0-6.71-.19c-1.12,0-2.23.13-3.34.26l-1.59.22c-.58.08-1.15.25-1.74.32-.06,0-.05.11,0,.1.55-.06,1.11,0,1.67-.05l1.67-.07c1.11-.05,2.23-.09,3.34-.15,2.23-.12,4.46-.22,6.69-.26C264.77,186.52,264.76,186.35,264.65,186.34Z" style="fill:#263238"></path><path d="M267.62,197l1,0,0,0a21.32,21.32,0,0,0,.08-2.88,3.58,3.58,0,0,0-.3-1.36l-.52-1.35L265.71,186l0-.12.06-.13a24.92,24.92,0,0,0,2-6.76,14.45,14.45,0,0,0-.61-6.91,31.16,31.16,0,0,0-1.33-3.3c-.49-1.08-1-2.15-1.56-3.21-1.11-2.11-2.27-4.21-3.5-6.26a64.77,64.77,0,0,1,3.93,6,39.78,39.78,0,0,1,3.11,6.52,14.17,14.17,0,0,1,.67,7.24,25.28,25.28,0,0,1-2.14,6.94l0-.25,2,5.45c.16.46.33.91.47,1.38a4.31,4.31,0,0,1,.23,1.47,20,20,0,0,1-.27,2.9v0h0Z" style="fill:#263238"></path><path d="M236.17,157.33c-2.82,7.63-12.21,35.78-12.39,37.33s-2.56,32.45-2.39,37.3c.13,3.42-24.95-1.59-24.89-4.58.15-7,1.73-26.86,4-35.45,1.86-7,21.92-36.28,28.12-42.57S240.8,144.79,236.17,157.33Z" style="fill:#f7a9a0"></path><path d="M195.17,220.51l27.69,6.85s1-31.89,1.79-33.7,12-34.09,13.89-40.9-2.07-12.28-12.36-1.38-22.07,31.9-25.41,37.47C198.08,193.34,195.17,220.51,195.17,220.51Z" style="fill:#FFFFFF"></path><path d="M236.12,162.79c-.55.82-1,1.68-1.51,2.55l-.2.37c.42-1.28.81-2.57,1.13-3.87,0-.11-.14-.14-.18-.05-1,2.27-1.7,4.68-2.51,7s-8.39,24.25-8.63,26.42c-.25,2.36-1.63,31.84-1.42,32.2s.46.5.59-.22c0,0,1.36-29.91,1.61-32s8.67-27.18,8.85-27.75c.38-.61.73-1.22,1.07-1.85.47-.89.92-1.78,1.31-2.71C236.26,162.79,236.16,162.73,236.12,162.79Z" style="fill:#263238"></path><path d="M198.08,215.22c1,.09,9.86,2.15,11.77,2.64s9.74,2.41,11.67,3.08a.07.07,0,0,1,0,.14c-2-.29-9.92-2.21-11.87-2.67S199,215.72,198,215.35C198,215.32,198,215.21,198.08,215.22Z" style="fill:#263238"></path><path d="M248.18,154.38s-11.32-8.06-17-7.54l-4.57,4.54s-1.55.61-2.1-.36a10.56,10.56,0,0,1,3-12.56c4.51-3.83,14.24-3.65,20.78-2.32,6.28,1.28,9.89,4.73,8.22,8.87S248.18,154.38,248.18,154.38Z" style="fill:#FFFFFF"></path><path d="M248.69,152.45s4.73-5.47,5.29-8.52-5.61-5.57-9.56-6.48c-6.11-1.4-10.18-.78-13.37,2.62S248.69,152.45,248.69,152.45Z" style="opacity:0.1"></path><path d="M248.69,152.45S238.92,141,230.1,140.3l1.11,6.54s7.3-.29,17,7.54Z" style="fill:#FFFFFF"></path><path d="M228.85,147.09a11.17,11.17,0,0,1,4.74.37c6.09,1.08,12.49,5.68,12.49,5.68l1.86,1.52.2.17.22-.12c2.85-1.77,5.6-5.65,6.11-6.41a38.62,38.62,0,0,1-6.47,5.76l.42.05-1.86-1.58c-.64-.5-7.6-4.54-12.87-5.51-.4-.09-.81-.14-1.21-.19s-.82-.07-1.22-.06A7.24,7.24,0,0,0,228.85,147.09Z" style="fill:#263238"></path><path d="M226.64,151.38a26.77,26.77,0,0,0,4.57-4.54,25.84,25.84,0,0,0-4.57,4.54Z" style="fill:#263238"></path><path d="M246.36,150.82a47.65,47.65,0,0,0-1,8.28c-.09,1.94.49,8.93,2.66,8.73s-1.25-4.78-1.77-8.47.52-6.36.7-8.56Z" style="fill:#FFFFFF"></path><g style="opacity:0.1"><path d="M246.36,150.82a47.65,47.65,0,0,0-1,8.28c-.09,1.94.49,8.93,2.66,8.73s-1.25-4.78-1.77-8.47.52-6.36.7-8.56Z"></path></g><path d="M251.71,150.8a44.62,44.62,0,0,1,2.44,7.22c.43,1.72,1.19,8.08-.79,8.3s.24-4.51,0-7.91-1.62-5.59-2.19-7.53Z" style="fill:#FFFFFF"></path><g style="opacity:0.1"><path d="M251.71,150.8a44.62,44.62,0,0,1,2.44,7.22c.43,1.72,1.19,8.08-.79,8.3s.24-4.51,0-7.91-1.62-5.59-2.19-7.53Z"></path></g><path d="M254.36,124c.31,4.06,3.45,7.13,7,6.85s6.19-3.79,5.88-7.85-3.45-7.13-7-6.85S254,119.9,254.36,124Z" style="fill:#FFFFFF"></path><path d="M252.29,124.38c.34,4.51,3.84,7.93,7.8,7.62s6.9-4.21,6.55-8.73-3.84-7.94-7.81-7.63S251.94,119.86,252.29,124.38Z" style="fill:#c7c7c7"></path><path d="M240.47,144.49c.31,1,5.81,5.33,10.49,4.8,1.52-.18.78-6.51.78-6.51l.1-.63,1.36-8.78-10.59-5.85-1.52-.76s-.22,2.42-.46,5.45l0,.43c0,.17,0,.33,0,.49,0,.45-.08.91-.11,1.37s-.05.69-.06,1.06l-.06,1.1A57.68,57.68,0,0,0,240.47,144.49Z" style="fill:#f7a9a0"></path><path d="M251.74,142.78s.13,1.14.17,2.47a22.52,22.52,0,0,1-11.55-9.41c0-.09,0-.19,0-.28,0-.37,0-.71.06-1.06s.07-.92.11-1.37c0-.16,0-.32,0-.49l0-.43c.24-3,.45-5.45.45-5.45l1.53.76,10.59,5.85-1.36,8.78Z" style="fill:#263238"></path><path d="M263.61,120.84c2.7,15.36-6.19,18.71-9.51,19.29-3,.52-13.31,1.93-17.58-13.06s2-21.11,8.83-22.67S260.91,105.49,263.61,120.84Z" style="fill:#f7a9a0"></path><path d="M261,119.93a9.46,9.46,0,0,1-1.07-.11,1.75,1.75,0,0,1-1.07-.32.56.56,0,0,1-.07-.68,1.39,1.39,0,0,1,1.31-.46,2,2,0,0,1,1.34.58A.59.59,0,0,1,261,119.93Z" style="fill:#263238"></path><path d="M250.59,120.63a9.32,9.32,0,0,0,1-.33,1.72,1.72,0,0,0,1-.53.57.57,0,0,0-.07-.68,1.39,1.39,0,0,0-1.38-.17,2,2,0,0,0-1.19.84A.59.59,0,0,0,250.59,120.63Z" style="fill:#263238"></path><path d="M253.18,123.38s-.07.06-.07.1c.17,1,.19,2.28-.72,2.75,0,0,0,.07,0,.06C253.55,126,253.51,124.35,253.18,123.38Z" style="fill:#263238"></path><path d="M252.1,122.4c-1.71.09-1.41,3.5.18,3.42S253.53,122.33,252.1,122.4Z" style="fill:#263238"></path><path d="M251.45,122.64c-.28.22-.55.59-.9.65s-.76-.25-1.06-.57c0,0-.06,0-.06,0,0,.65.36,1.3,1.07,1.34s1.06-.59,1.16-1.26C251.68,122.72,251.56,122.55,251.45,122.64Z" style="fill:#263238"></path><path d="M259,122.35s.09.05.09.09c0,1.06.29,2.27,1.28,2.54a0,0,0,0,1,0,.06C259.19,125,258.89,123.37,259,122.35Z" style="fill:#263238"></path><path d="M259.87,121.17c1.69-.26,2.1,3.14.53,3.39S258.45,121.4,259.87,121.17Z" style="fill:#263238"></path><path d="M260.6,121.31c.3.15.6.45.92.43s.61-.42.81-.8c0,0,.05,0,.05,0,.1.64,0,1.35-.64,1.55s-1.05-.33-1.28-1C260.42,121.45,260.49,121.25,260.6,121.31Z" style="fill:#263238"></path><path d="M253.94,132.31c.26.24.53.57.92.59a2.82,2.82,0,0,0,1.13-.32s.07,0,.05,0a1.45,1.45,0,0,1-1.33.64,1.14,1.14,0,0,1-.87-.9C253.82,132.31,253.9,132.28,253.94,132.31Z" style="fill:#263238"></path><path d="M258,128.05s.38,1.56.45,2.3c0,.07-.17.12-.42.16h0a3.56,3.56,0,0,1-3.56-1c-.06-.07,0-.15.1-.11a5.4,5.4,0,0,0,3.32.6c0-.21-.74-2.65-.62-2.67a6.46,6.46,0,0,1,1.73.22c-.69-3.27-1.9-6.39-2.54-9.65,0-.12.15-.17.19-.07a53.82,53.82,0,0,1,3.18,10.28C259.87,128.55,258.28,128.15,258,128.05Z" style="fill:#263238"></path><path d="M257.9,130.24a4.29,4.29,0,0,1-1.49,1.6,1.94,1.94,0,0,1-1.15.26c-.87-.09-1-.85-1-1.54a5,5,0,0,1,.21-1.07A5.55,5.55,0,0,0,257.9,130.24Z" style="fill:#263238"></path><path d="M256.41,131.84a1.94,1.94,0,0,1-1.15.26c-.87-.09-1-.85-1-1.54A2,2,0,0,1,256.41,131.84Z" style="fill:#ff9abb"></path><path d="M236.6,127.91a6.45,6.45,0,0,0,3.47-5.34,16.75,16.75,0,0,0,6.71-5.69c-.1.33-.79,2.67-1.19,3.86,9.87-2.11,12.75-9.78,12.75-9.78a17.07,17.07,0,0,1,4.48,6.18s-.08-6.09-3.32-10.08a9.8,9.8,0,0,0-9.15-3.81,14,14,0,0,0-13.58,4.56C230.51,115,236.6,127.91,236.6,127.91Z" style="fill:#263238"></path><path d="M253.09,118.9a18.24,18.24,0,0,1-5,2s0,0,0,0a15.65,15.65,0,0,0,7.16-4.59,15,15,0,0,0,2.07-3.05,10.38,10.38,0,0,0,1.22-3.81c0-.1.15-.09.15,0a11.89,11.89,0,0,1-.69,3.92,10.54,10.54,0,0,1-2.12,3.34,12.43,12.43,0,0,1-2.75,2.2" style="fill:#263238"></path><path d="M239.38,126.43s-3.81-4.55-5.91-3.15,1.07,8.21,3.74,8.94a2.64,2.64,0,0,0,3.4-1.72Z" style="fill:#f7a9a0"></path><path d="M234.43,125.21a0,0,0,0,0,0,.07c1.88.57,3,2.17,3.8,3.85a1.46,1.46,0,0,0-2.21-.2s0,.1.06.09a1.62,1.62,0,0,1,1.83.41,7.64,7.64,0,0,1,1,1.36c.1.15.39,0,.31-.14l0,0C239,128.3,236.93,125.22,234.43,125.21Z" style="fill:#263238"></path><path d="M242,104.54c2.56-.83,10.94-10.32,3.21-18.78s-23,0-19,11.19C228.82,104.45,236.57,106.31,242,104.54Z" style="fill:#263238"></path><path d="M236.11,123s-1.67-8.75.32-13.94c2.21-5.77,14.09-7.34,18.74-5.25,0,0-9.94-3.07-15.2,5.21-2.22,3.49-.88,13.85-.88,13.85Z" style="fill:#c7c7c7"></path><path d="M244.93,126.46c.6,4.49-2.12,8.56-6.06,9.08s-7.62-2.69-8.21-7.19,2.11-8.55,6.05-9.08S244.33,122,244.93,126.46Z" style="fill:#c7c7c7"></path><path d="M242.82,126.48c.53,4-1.91,7.69-5.45,8.16s-6.85-2.42-7.38-6.46,1.9-7.69,5.44-8.16S242.28,122.44,242.82,126.48Z" style="fill:#FFFFFF"></path><path d="M239.33,127a4,4,0,1,1-4.54-4A4.28,4.28,0,0,1,239.33,127Z" style="opacity:0.1"></path><path d="M215.31,244.4c.88-1.43,1.64-1,2,2s-.82,15,3.42,15.06,5.63-17,4.68-21.86-4.21-12.5-4.21-12.5C220.25,230.35,217.23,238,215.31,244.4Z" style="fill:#f7a9a0"></path><path d="M220.6,253.69l-.11-.49c.16,0,16-3.43,19.54-5,5.35-2.35,18.42-15.82,8.61-45.92-1.9-5.86,0-14.16,1.92-22.18,2.17-9.25,4.21-18,.21-22a19.15,19.15,0,0,0-3.55-2.71A15.89,15.89,0,0,1,241,149c-2.21-4-2.24-13.92-2.24-14.35h.5c0,.1,0,10.24,2.18,14.11a15.2,15.2,0,0,0,6,6.16,20.36,20.36,0,0,1,3.64,2.79c4.2,4.23,2.12,13.1-.08,22.49-1.87,7.95-3.8,16.18-1.93,21.9,9.92,30.46-3.43,44.14-8.88,46.54C236.65,250.25,221.25,253.55,220.6,253.69Z" style="fill:#263238"></path><path d="M253.42,163.1l-.5,0c.56-5.52,3.49-9.07,6.08-12.2,1.68-2,3.13-3.8,3.58-5.72A83.71,83.71,0,0,0,264.09,130h.5a84.52,84.52,0,0,1-1.52,15.28c-.47,2-2,3.83-3.68,5.91C256.84,154.24,254,157.73,253.42,163.1Z" style="fill:#263238"></path><path d="M192.7,251.47l31.3-9c.89-.35,1.77,0,1.94.69l3.17,13a1.87,1.87,0,0,1-1.31,1.95l-31.29,9c-.9.35-1.78,0-1.95-.68l-3.16-13A1.84,1.84,0,0,1,192.7,251.47Z" style="fill:#a6a6a6"></path><path d="M193.06,253l31.29-9c.9-.35,1.78,0,2,.68l3.16,13a1.85,1.85,0,0,1-1.3,1.95l-31.3,9c-.9.35-1.77,0-2-.69l-3.16-13A1.87,1.87,0,0,1,193.06,253Z" style="fill:#c7c7c7"></path><path d="M195.43,256.46c.79-.07,1.3-.63,1.13-1.24a1.6,1.6,0,0,0-1.73-1c-.79.07-1.3.63-1.14,1.24A1.62,1.62,0,0,0,195.43,256.46Z" style="fill:#263238"></path><rect x="227.9" y="249.86" width="7.05" height="2.02" transform="translate(513.12 443.59) rotate(167.07)" style="fill:#FFFFFF"></rect><path d="M196.59,222.88c-2.3,9.27-5.72,20.67-2.65,31a5.36,5.36,0,0,0,2,2.89c1.3,4.65,3.88,5.44,3.88,5.44,2.53,4,5.29,4.4,5.29,4.4s1.58,5.45,5,5c3.87-.44.9-8,1.8-13.16,2.08-11.83,8.34-28.05,9.28-31.4Z" style="fill:#f7a9a0"></path><path d="M205.38,244.57A76.4,76.4,0,0,0,204.14,255a77.61,77.61,0,0,0,1,11.49.1.1,0,0,1-.19,0,40.79,40.79,0,0,1,.26-22C205.27,244.37,205.4,244.39,205.38,244.57Z" style="fill:#263238"></path><path d="M198.42,242.27c-.34,3.43-.89,9.46,1.47,19.91a0,0,0,1,1-.06,0,36.64,36.64,0,0,1-1.57-19.94C198.3,242,198.44,242.05,198.42,242.27Z" style="fill:#263238"></path><path d="M194.66,241.11c-.35,5.85.16,9.58,1.26,15.63,0,0,0,.05-.06,0-2-6.75-1.92-9.41-1.4-15.69C194.48,240.86,194.68,240.88,194.66,241.11Z" style="fill:#263238"></path></g></svg>
